<?xml version="1.0" encoding="utf-8"?>
<!-- Generator: Adobe Adobe Illustrator 24.2.0, SVG Export Plug-In . SVG Version: 6.00 Build 0)  -->
<svg version="1.1" xmlns="http://www.w3.org/2000/svg" xmlns:xlink="http://www.w3.org/1999/xlink" x="0px" y="0px" width="550px"
	 height="1004px" viewBox="0 0 550 1004" style="enable-background:new 0 0 550 1004;" xml:space="preserve">
<style type="text/css">
	.st0{display:none;}
	.st1{font-family:'Milka-Regular';}
	.st2{font-size:483.7737px;}
	.st3{display:inline;}
	.st4{fill:#855151;}
	.st5{opacity:0.6784;}
	.st6{display:inline;fill:#855151;}
	.st7{fill:#859CBA;}
	.st8{fill:#5E4949;}
	.st9{display:inline;fill:#859CBA;}
</style>
<g id="Milks_reg_base" class="st0">
	<text transform="matrix(1 0 0 1 -148.6388 933.4738)" class="st1 st2">S</text>
	<text transform="matrix(1 0 0 1 81.3002 933.4744)" class="st1 st2">B</text>
	<g class="st3">
		<path d="M-86.13,161.93C-176.6,64.2-134.03-66.14-5.82-66.14h16.45L131.09,64C165.93,101.56,189,119,189,189
			c0,81.32-57.25,103.08-80.85,103.08l-73.81-0.01L-86.13,161.93z M13.53,292.07h-141.75V138.22L13.53,292.07z M31.43-66.14h134.49
			V79L31.43-66.14z"/>
	</g>
	<g class="st3">
		<path class="st4" d="M19.85,299v232H-128l-0.2-392.79 M104.03,305.88c59.99,0,85.15,55.58,85.15,114.12
			c0,61.44-28.06,111-93.37,111H34.37V305.88H104.03z"/>
	</g>
	<g class="st5">
		<path class="st6" d="M319.85,338.96v-232H172l-0.2,392.79 M404.03,332.08c59.99,0,85.15-48.58,85.15-107.12
			c0-61.44-28.06-118-93.37-118h-61.44v225.12H404.03z"/>
	</g>
</g>
<g id="Milks_reg_logo_-_header_screen">
	<text transform="matrix(1 0 0 1 -148.6388 933.4738)" class="st0 st1 st2">S</text>
	<text transform="matrix(1 0 0 1 81.3002 933.4744)" class="st0 st1 st2">B</text>
	<g id="Backup">
		<g>
			<path d="M87.75,386.74C-61.43,225.6,8.77,10.68,220.17,10.68h27.12l198.64,214.59c57.44,61.93,95.48,90.69,95.48,206.11
				c0,134.1-94.39,169.97-133.32,169.97l-121.71-0.02L87.75,386.74z M252.09,601.33H18.35V347.65L252.09,601.33z"/>
		</g>
		<g>
			<path class="st4" d="M262.51,612.77v382.55H18.71l-0.33-647.68 M401.32,624.12c98.92,0,140.4,91.65,140.4,188.17
				c0,101.31-46.27,183.03-153.96,183.03H286.44v-371.2H401.32z"/>
		</g>
		<g>
			<path d="M401.27,243.35c98.92,0,140.4,88.39,140.4,181.48c0,97.71-46.27,176.52-153.96,176.52H286.39v-358H401.27z"/>
		</g>
		<polygon points="281.6,10.68 503.37,10.68 503.37,250 		"/>
		<polygon class="st7" points="281.6,10.68 503.37,10.68 503.37,250 		"/>
	</g>
	<g class="st0">
		<g class="st3">
			<path d="M-82.97,311.74C-232.14,150.6-161.94-64.32,49.46-64.32h27.12l198.64,214.59c57.44,61.93,95.48,90.69,95.48,206.11
				C370.7,474,290,526.35,218,526.35l-102.33-0.02L-82.97,311.74z M81.37,526.33h-233.74V272.65L81.37,526.33z"/>
		</g>
		<g class="st3">
			<path class="st4" d="M91.79,537.77v382.55h-243.8l-0.33-647.68 M230.6,549.12c98.92,0,140.4,91.65,140.4,188.17
				c0,101.31-46.27,183.03-153.96,183.03H115.73v-371.2H230.6z"/>
		</g>
		<g class="st3">
			<path class="st8" d="M230.6,162.99c98.92,0,140.4,89.71,140.4,184.2c0,99.17-46.27,179.16-153.96,179.16H115.73V162.99H230.6z"/>
		</g>
		<polygon class="st3" points="110.89,-64.32 332.66,-64.32 332.66,175 		"/>
		<polygon class="st9" points="110.89,-64.32 332.66,-64.32 332.66,175 		"/>
	</g>
</g>
</svg>
