<?xml version="1.0" encoding="utf-8"?>
<!-- Generator: Adobe Adobe Illustrator 24.2.0, SVG Export Plug-In . SVG Version: 6.00 Build 0)  -->
<svg version="1.1" xmlns="http://www.w3.org/2000/svg" xmlns:xlink="http://www.w3.org/1999/xlink" x="0px" y="0px" width="1000px"
	 height="1000px" viewBox="0 0 1000 1000" style="enable-background:new 0 0 1000 1000;" xml:space="preserve">
<style type="text/css">
	.st0{display:none;}
	.st1{display:inline;}
	.st2{font-family:'SourceSansPro-Regular';}
	.st3{font-size:311.2193px;}
	.st4{fill:#E643AF;}
	.st5{display:inline;fill:#E643AF;}
	.st6{display:inline;fill:#2DE0B1;}
	.st7{fill:#00BD9D;}
	.st8{display:inline;fill:#00BD9D;}
	.st9{display:inline;fill:#C1B6FC;}
	.st10{display:none;fill:#00BD9D;}
	.st11{fill:#C1B6FC;}
	.st12{display:inline;fill:#FF1FDD;}
	.st13{display:inline;fill:#45E6C8;}
	.st14{display:inline;fill:#38C2B4;}
	.st15{display:inline;fill:#E63CBB;}
	.st16{display:inline;fill:#854D4D;}
	.st17{fill:#C6D435;}
	.st18{fill:#F1FCB6;}
	.st19{stroke:#000000;stroke-width:0.405;stroke-miterlimit:10;}
	.st20{stroke:#000000;stroke-width:0.81;stroke-miterlimit:10;}
	.st21{stroke:#000000;stroke-width:1.215;stroke-miterlimit:10;}
	.st22{stroke:#000000;stroke-width:1.62;stroke-miterlimit:10;}
	.st23{stroke:#000000;stroke-width:2.025;stroke-miterlimit:10;}
	.st24{stroke:#000000;stroke-width:2.43;stroke-miterlimit:10;}
	.st25{stroke:#000000;stroke-width:2.835;stroke-miterlimit:10;}
	.st26{stroke:#000000;stroke-width:3.24;stroke-miterlimit:10;}
	.st27{stroke:#000000;stroke-width:3.645;stroke-miterlimit:10;}
	.st28{stroke:#000000;stroke-width:1.8225;stroke-miterlimit:10;}
</style>
<g id="Layer_2" class="st0">
	<text transform="matrix(1 0 0 1 333.8101 566.9138)" class="st1 st2 st3">S</text>
	<text transform="matrix(1 0 0 1 500.0005 566.9138)" class="st1 st2 st3">B</text>
</g>
<g id="Layer_2_copy_4" class="st0">
	<text transform="matrix(1 0 0 1 333.8101 566.9138)" class="st1 st2 st3">S</text>
	<text transform="matrix(1 0 0 1 500.0005 566.9138)" class="st1 st2 st3">B</text>
</g>
<g id="Layer_6" class="st0">
	<g transform="matrix(0.4 0 0 0.4 0 0)">
		<g class="st1">
			<g>
				<g>
					<polygon class="st4" points="507.99,511.05 507.99,971.18 738.05,741.11 					"/>
				</g>
			</g>
			<g>
				<g>
					<polygon class="st4" points="261.95,258.89 492.01,488.95 492.01,28.82 					"/>
				</g>
			</g>
		</g>
		<polygon class="st5" points="738.05,258.89 507.99,488.95 507.99,28.82 		"/>
		<polygon class="st6" points="261.95,741.11 492.01,971.18 492.01,511.05 		"/>
	</g>
	<g>
		<g class="st1">
			<g>
				<g>
					<polygon class="st7" points="507.99,511.05 507.99,971.18 738.05,741.11 					"/>
				</g>
			</g>
			<g>
				<g>
					<polygon class="st7" points="261.95,258.89 492.01,488.95 492.01,28.82 					"/>
				</g>
			</g>
		</g>
		<polygon class="st8" points="738.05,258.89 507.99,488.95 507.99,28.82 		"/>
		<polygon class="st9" points="261.95,741.11 492.01,971.18 492.01,511.05 		"/>
	</g>
	<g>
		<g class="st1">
			<g class="st0">
				<g class="st1">
					<polygon class="st7" points="525.45,499.5 755.51,729.57 755.51,269.44 					"/>
				</g>
			</g>
			<g>
				<g>
					<polygon class="st7" points="519.97,536.19 519.97,996.31 750.03,766.25 					"/>
				</g>
			</g>
			<polygon class="st10" points="744.55,230.06 514.49,460.12 514.49,0 			"/>
		</g>
		<g class="st1">
			<g>
				<g>
					<polygon class="st11" points="249.97,273.13 249.97,733.26 480.03,503.2 					"/>
				</g>
			</g>
			<g>
				<g>
					<polygon class="st11" points="260.93,766.25 490.99,996.31 490.99,536.19 					"/>
				</g>
			</g>
			<polygon class="st7" points="260.93,233.75 490.99,463.81 490.99,3.69 			"/>
		</g>
	</g>
	<g>
		<path d="M98.3,569.71l241.33-226.08l277.11,295.8l-295.8,277.11L94.86,675.21C66.68,645.13,68.22,597.9,98.3,569.71z"/>
		<path class="st1" d="M231.35,449.52l111.44-104.4l277.11,295.8L324.1,918.03L219.7,806.59
			C124.31,704.77,129.53,544.91,231.35,449.52z"/>
		<path class="st1" d="M768.65,550.48l-111.44,104.4l-277.11-295.8L675.9,81.97l104.4,111.44
			C875.69,295.23,870.47,455.09,768.65,550.48z"/>
	</g>
	<g>
		<path d="M98.3,569.71l241.33-226.08l277.11,295.8l-295.8,277.11L94.86,675.21C66.68,645.13,68.22,597.9,98.3,569.71z"/>
		<path class="st9" d="M231.35,449.52l111.44-104.4l277.11,295.8L324.1,918.03L219.7,806.59
			C124.31,704.77,129.53,544.91,231.35,449.52z"/>
		<path class="st8" d="M768.65,550.48l-111.44,104.4l-277.11-295.8L675.9,81.97l104.4,111.44
			C875.69,295.23,870.47,455.09,768.65,550.48z"/>
	</g>
	<g>
		<path d="M98.3,569.71l241.33-226.08l277.11,295.8l-295.8,277.11L94.86,675.21C66.68,645.13,68.22,597.9,98.3,569.71z"/>
		<path class="st12" d="M231.35,449.52l111.44-104.4l277.11,295.8L324.1,918.03L219.7,806.59
			C124.31,704.77,129.53,544.91,231.35,449.52z"/>
		<path class="st13" d="M768.65,550.48l-111.44,104.4l-277.11-295.8L675.9,81.97l104.4,111.44
			C875.69,295.23,870.47,455.09,768.65,550.48z"/>
	</g>
	<g>
		<path class="st1" d="M509.5,30.75c84.12,33.81,199.6,68.7,199.6,153.45s-47.92,92.48-199.6,153.45V30.75z"/>
		<path class="st1" d="M509.5,346.55c84.12,33.81,199.6,68.7,199.6,153.45s-47.92,92.48-199.6,153.45V346.55z"/>
		<path class="st1" d="M509.5,662.36c84.12,33.81,199.6,68.7,199.6,153.45s-47.92,92.48-199.6,153.45V662.36z"/>
		<path class="st1" d="M490.5,346.55c-84.12,33.81-199.6,68.7-199.6,153.45s47.92,92.48,199.6,153.45V346.55z"/>
	</g>
	<g class="st1">
		<path class="st7" d="M509.5,30.75c84.12,33.81,199.6,68.7,199.6,153.45s-47.92,92.48-199.6,153.45V30.75z"/>
		<path class="st7" d="M509.5,346.55c84.12,33.81,199.6,68.7,199.6,153.45s-47.92,92.48-199.6,153.45V346.55z"/>
		<path class="st11" d="M509.5,662.36c84.12,33.81,199.6,68.7,199.6,153.45s-47.92,92.48-199.6,153.45V662.36z"/>
		<path class="st11" d="M490.5,346.55c-84.12,33.81-199.6,68.7-199.6,153.45s47.92,92.48,199.6,153.45V346.55z"/>
	</g>
	<g>
		<path class="st14" d="M509.5,30.75c84.12,33.81,199.6,68.7,199.6,153.45s-47.92,92.48-199.6,153.45V30.75z"/>
		<path class="st14" d="M509.5,346.55c84.12,33.81,199.6,68.7,199.6,153.45s-47.92,92.48-199.6,153.45V346.55z"/>
		<path class="st15" d="M509.5,662.36c84.12,33.81,199.6,68.7,199.6,153.45s-47.92,92.48-199.6,153.45V662.36z"/>
		<path class="st15" d="M490.5,346.55c-84.12,33.81-199.6,68.7-199.6,153.45s47.92,92.48,199.6,153.45V346.55z"/>
	</g>
	<g>
		<path class="st16" d="M489.32,268.13V103.26h65.81c34.8,0,63.01,28.21,63.01,63.01v58.05c0,24.2-19.61,43.81-43.81,43.81H489.32z"
			/>
		<path class="st16" d="M489.32,108.03c0-35.9,29.1-65,65-65c35.9,0,65,29.1,65,65L489.32,108.03z"/>
		<path class="st1" d="M489.32,311.53c0,35.9,29.1,65,65,65c35.9,0,65-29.1,65-65L489.32,311.53z"/>
		<path class="st1" d="M489.32,309.62v-55h109.67c11.23,0,20.33,9.1,20.33,20.33v34.67H489.32z"/>
		<path class="st1" d="M496.23,78.85c16.12-32.07,55.19-45.01,87.27-28.89c27.56,13.85,40.99,44.64,34,73.38
			c-1.83,7.51-10.24,11.31-17.14,7.84L496.23,78.85z"/>
	</g>
</g>
<g id="Layer_2_copy_3">
	<g>
		<g>
			<path class="st7" d="M44.44,748.73l29.76-37.2h397.33c97.47,0,144.35-32,144.35-100.45c0-75.9-55.06-95.24-160.72-95.24H255.76
				c-124.26,0-183.04-40.92-183.04-128.72c0-90.03,60.27-136.17,188.99-136.17h389.15l-29.02,37.95H259.48
				c-96.73,0-145.09,31.99-145.09,100.45c0,74.41,55.06,93.01,161.46,93.01h200.15c121.28,0,182.3,39.44,182.3,128.72
				c0,91.52-59.53,137.65-189.74,137.65H44.44z"/>
		</g>
		<g>
			<g>
				<path class="st17" d="M863.29,493.09c37.21-8.18,82.59-47.62,82.59-109.38c0-84.82-59.53-132.44-157.74-132.44H430.99
					l-30.51,37.95h389.15c72.92,0,114.59,34.97,114.59,99.71c0,52.08-41.67,90.78-92.26,90.78l-415.19,2.99v31.24v1.51l43.9,0.13
					l372.04-2.39c57.29,0,98.96,40.18,98.96,98.22c0,53.57-37.2,100.45-125.75,100.45l-387.09,1.2l-2.06-0.34v36.35h388.4
					c123.52,0,170.39-60.27,170.39-134.68C955.56,543.69,907.94,503.51,863.29,493.09z"/>
			</g>
		</g>
	</g>
</g>
<g id="Layer_2_copy_5" class="st0">
	<g class="st1">
		<g>
			<path class="st7" d="M44.44,748.73l29.76-37.2h397.33c97.47,0,144.35-32,144.35-100.45c0-75.9-55.06-95.24-160.72-95.24H255.76
				c-124.26,0-183.04-40.92-183.04-128.72c0-90.03,60.27-136.17,188.99-136.17h389.15l-29.02,37.95H259.48
				c-96.73,0-145.09,31.99-145.09,100.45c0,74.41,55.06,93.01,161.46,93.01h200.15c121.28,0,182.3,39.44,182.3,128.72
				c0,91.52-59.53,137.65-189.74,137.65H44.44z"/>
		</g>
		<g>
			<g>
				<path class="st18" d="M863.29,493.09c37.21-8.18,82.59-47.62,82.59-109.38c0-84.82-59.53-132.44-157.74-132.44H430.99
					l-30.51,37.95h389.15c72.92,0,114.59,34.97,114.59,99.71c0,52.08-41.67,90.78-92.26,90.78l-415.19,2.99v31.24v1.51l43.9,0.13
					l372.04-2.39c57.29,0,98.96,40.18,98.96,98.22c0,53.57-37.2,100.45-125.75,100.45l-387.09,1.2l-2.06-0.34v36.35h388.4
					c123.52,0,170.39-60.27,170.39-134.68C955.56,543.69,907.94,503.51,863.29,493.09z"/>
			</g>
		</g>
	</g>
</g>
<g id="Layer_2_copy" class="st0">
	<g class="st1">
		<path d="M468.57,346.45l-3.71,3.77c-15.2-16.3-30.74-25.64-55.16-25.64c-33.87,0-55.57,26.39-55.57,57.42
			c0,32.71,14.33,48.78,57.77,65.6c43.62,16.82,64.03,36.02,64.03,78.82c0,43.5-27.96,76.97-68.85,76.97
			c-30.28,0-49.94-12.94-67.05-32.54l3.71-3.6c16.42,18.21,33.93,30.62,63.16,30.62c37.99,0,63.16-30.62,63.16-71.28
			c0-39.96-17.8-57.37-60.09-74.01c-46.05-18.04-61.71-35.84-61.71-70.58c0-33.58,24.36-62.93,61.42-62.93
			C436.96,319.08,453.37,330.21,468.57,346.45z"/>
	</g>
	<g class="st1">
		<g>
			<path d="M609.21,453.06c33.64-4.58,53.07-27.32,53.07-61.77c0-43.38-26.74-68.15-79.93-68.15h-40.89v276.43h50.7
				c50.69,0,82.01-22.33,82.01-74.64C674.18,478.7,647.32,455.26,609.21,453.06z M547.33,328.65h35.96
				c49.13,0,72.96,22.67,72.96,62.81c0,33.58-21.34,59.28-60.15,59.28h-48.78V328.65z M592.57,594.06h-45.24V456.08h50.63
				c44.25,0,70.18,24.42,70.18,68.85C668.14,574.8,639.09,594.06,592.57,594.06z"/>
		</g>
	</g>
</g>
<g id="Layer_2_copy_2" class="st0">
	<g class="st1">
		<g>
			<path d="M468.57,346.45l-3.71,3.77c-15.2-16.3-30.74-25.64-55.16-25.64c-33.87,0-55.57,26.39-55.57,57.42
				c0,32.71,14.33,48.78,57.77,65.6c43.62,16.82,64.03,36.02,64.03,78.82c0,43.5-27.96,76.97-68.85,76.97
				c-30.28,0-49.94-12.94-67.05-32.54l3.71-3.6c16.42,18.21,33.93,30.62,63.16,30.62c37.99,0,63.16-30.62,63.16-71.28
				c0-39.96-17.8-57.37-60.09-74.01c-46.05-18.04-61.71-35.84-61.71-70.58c0-33.58,24.36-62.93,61.42-62.93
				C436.96,319.08,453.37,330.21,468.57,346.45z"/>
		</g>
		<path class="st19" d="M420.7,319.08c24.23,0,38.82,13.79,52.33,28.22l-3.3,3.65c-13.51-14.49-27.33-19.14-49.03-19.14
			c-30.11,0-49.39,28.64-49.39,56.22c0,29.08,12.74,48.85,51.35,63.8c38.77,14.95,56.92,38.4,56.92,76.45
			c0,38.67-24.85,75.11-61.2,75.11c-26.91,0-44.39-15.81-59.6-33.24l3.3-3.48c14.59,16.19,30.16,23.16,56.14,23.16
			c33.77,0,56.14-33.19,56.14-69.33c0-35.52-15.83-56.78-53.41-71.58c-40.94-16.03-54.86-37.53-54.86-68.41
			C366.1,350.66,387.75,319.08,420.7,319.08z"/>
		<path class="st20" d="M431.7,319.08c21.2,0,33.97,16.44,45.79,29.07l-2.89,3.54c-11.82-12.68-23.91-12.65-42.9-12.65
			c-26.35,0-43.22,30.89-43.22,55.03c0,25.44,11.14,48.92,44.93,62c33.92,13.08,49.8,40.79,49.8,74.08
			c0,33.83-21.74,73.26-53.55,73.26c-23.55,0-38.84-18.69-52.15-33.94l2.89-3.36c12.77,14.17,26.39,15.69,49.13,15.69
			c29.55,0,49.13-35.76,49.13-67.38c0-31.08-13.85-56.19-46.74-69.14c-35.82-14.03-48-39.22-48-66.24
			C383.92,352.9,402.87,319.08,431.7,319.08z"/>
		<path class="st21" d="M442.7,319.08c18.17,0,29.12,19.09,39.25,29.92l-2.47,3.42c-10.13-10.87-20.5-6.16-36.77-6.16
			c-22.58,0-37.04,33.14-37.04,53.83c0,21.81,9.55,48.99,38.51,60.2c29.08,11.21,42.69,43.17,42.69,71.71c0,29-18.64,71.4-45.9,71.4
			c-20.18,0-33.29-21.57-44.7-34.64l2.47-3.25c10.94,12.14,22.62,8.22,42.11,8.22c25.33,0,42.11-38.33,42.11-65.43
			c0-26.64-11.87-55.61-40.06-66.7c-30.7-12.03-41.14-40.91-41.14-64.07C401.75,355.13,417.99,319.08,442.7,319.08z"/>
		<path class="st22" d="M453.7,319.08c15.14,0,24.26,21.74,32.71,30.77l-2.06,3.3c-8.44-9.05-17.08,0.33-30.64,0.33
			c-18.82,0-30.87,35.39-30.87,52.63c0,18.17,7.96,49.06,32.09,58.41c24.23,9.35,35.57,45.55,35.57,69.33
			c0,24.17-15.53,69.55-38.25,69.55c-16.82,0-27.74-24.45-37.25-35.34l2.06-3.13c9.12,10.12,18.85,0.75,35.09,0.75
			c21.11,0,35.09-40.9,35.09-63.48c0-22.2-9.89-55.02-33.38-64.27c-25.59-10.02-34.28-42.6-34.28-61.9
			C419.57,357.37,433.11,319.08,453.7,319.08z"/>
		<path class="st23" d="M464.7,319.08c12.12,0,19.41,24.4,26.16,31.61l-1.65,3.18c-6.75-7.24-13.66,6.82-24.52,6.82
			c-15.05,0-24.7,37.64-24.7,51.43c0,14.54,6.37,49.13,25.68,56.61c19.39,7.48,28.46,47.94,28.46,66.96
			c0,19.33-12.43,67.69-30.6,67.69c-13.46,0-22.19-27.32-29.8-36.04l1.65-3.02c7.3,8.09,15.08-6.72,28.07-6.72
			c16.88,0,28.07-43.46,28.07-61.53c0-17.76-7.91-54.44-26.71-61.83c-20.47-8.02-27.43-44.29-27.43-59.73
			C437.4,359.6,448.23,319.08,464.7,319.08z"/>
		<path class="st24" d="M475.7,319.08c9.09,0,14.56,27.05,19.62,32.46l-1.24,3.07c-5.07-5.43-10.25,13.31-18.39,13.31
			c-11.29,0-18.52,39.89-18.52,50.24c0,10.9,4.78,49.2,19.26,54.81c14.54,5.61,21.34,50.32,21.34,64.59
			c0,14.5-9.32,65.84-22.95,65.84c-10.09,0-16.65-30.2-22.35-36.74l1.24-2.9c5.47,6.07,11.31-14.19,21.05-14.19
			c12.66,0,21.05-46.03,21.05-59.58c0-13.32-5.93-53.85-20.03-59.4c-15.35-6.01-20.57-45.98-20.57-57.56
			C455.22,361.84,463.34,319.08,475.7,319.08z"/>
		<path class="st25" d="M486.7,319.08c6.06,0,9.71,29.7,13.08,33.31l-0.82,2.95c-3.38-3.62-6.83,19.8-12.26,19.8
			c-7.53,0-12.35,42.14-12.35,49.04c0,7.27,3.18,49.27,12.84,53.01c9.69,3.74,14.23,52.7,14.23,62.22c0,9.67-6.21,63.99-15.3,63.99
			c-6.73,0-11.1-33.08-14.9-37.44l0.82-2.78c3.65,4.05,7.54-21.66,14.04-21.66c8.44,0,14.04-48.6,14.04-57.63
			c0-8.88-3.96-53.26-13.35-56.96c-10.23-4.01-13.71-47.67-13.71-55.39C473.05,364.07,478.46,319.08,486.7,319.08z"/>
		<path class="st26" d="M497.7,319.08c3.03,0,4.85,32.35,6.54,34.16l-0.41,2.83c-1.69-1.81-3.42,26.3-6.13,26.3
			c-3.76,0-6.17,44.39-6.17,47.84c0,3.63,1.59,49.35,6.42,51.21c4.85,1.87,7.11,55.09,7.11,59.84c0,4.83-3.11,62.13-7.65,62.13
			c-3.36,0-5.55-35.96-7.45-38.14l0.41-2.67c1.82,2.02,3.77-29.13,7.02-29.13c4.22,0,7.02-51.17,7.02-55.68
			c0-4.44-1.98-52.68-6.68-54.53c-5.12-2-6.86-49.36-6.86-53.22C490.88,366.31,493.58,319.08,497.7,319.08z"/>
		<path class="st27" d="M508.7,319.08V603.4V319.08z"/>
	</g>
	<g class="st1">
		<g>
			<g>
				<path d="M609.21,453.06c33.64-4.58,53.07-27.32,53.07-61.77c0-43.38-26.74-68.15-79.93-68.15h-40.89v276.43h50.7
					c50.69,0,82.01-22.33,82.01-74.64C674.18,478.7,647.32,455.26,609.21,453.06z M547.33,328.65h35.96
					c49.13,0,72.96,22.67,72.96,62.81c0,33.58-21.34,59.28-60.15,59.28h-48.78V328.65z M592.57,594.06h-45.24V456.08h50.63
					c44.25,0,70.18,24.42,70.18,68.85C668.14,574.8,639.09,594.06,592.57,594.06z"/>
			</g>
		</g>
		<g>
			<g>
				<path class="st28" d="M525.08,321.11l20.44,11.94c26.59,0,39.96,47.4,39.96,69.09c0,17.23-9.72,54.94-26.54,57.23
					c19.05,1.1,32.48,44.59,32.48,67.7c0,26.16-15.66,74.42-41.01,74.42l-25.35-22.03V321.11z"/>
				<path d="M528.01,358.09v61.04h24.39c19.4,0,30.07-12.85,30.07-29.64c0-20.07-11.92-31.41-36.48-31.41H528.01z"/>
				<path d="M588.42,525.85c0-22.21-12.96-34.43-35.09-34.43h-25.32v68.99h22.62C573.89,560.42,588.42,550.79,588.42,525.85z"/>
			</g>
		</g>
		<path class="st27" d="M508.7,319.08V603.4V319.08z"/>
	</g>
</g>
</svg>
